<mxfile host="65bd71144e">
    <diagram id="NdVp4izj-DP-vkggaARb" name="Page-1">
        <mxGraphModel dx="854" dy="422" grid="1" gridSize="10" guides="1" tooltips="1" connect="1" arrows="1" fold="1" page="1" pageScale="1" pageWidth="1169" pageHeight="827" background="#ffffff" math="0" shadow="0">
            <root>
                <mxCell id="0"/>
                <mxCell id="1" parent="0"/>
                <mxCell id="18" value="" style="edgeStyle=none;rounded=1;orthogonalLoop=1;jettySize=auto;html=1;endArrow=none;startSize=14;endSize=14;sourcePerimeterSpacing=8;targetPerimeterSpacing=8;endFill=0;" edge="1" parent="1" source="3" target="10">
                    <mxGeometry relative="1" as="geometry"/>
                </mxCell>
                <mxCell id="19" value="2: Show the &lt;u&gt;Profile Selection&lt;/u&gt; screen" style="edgeLabel;html=1;align=center;verticalAlign=middle;resizable=0;points=[];" vertex="1" connectable="0" parent="18">
                    <mxGeometry x="-0.3248" y="-1" relative="1" as="geometry">
                        <mxPoint x="-99" y="7" as="offset"/>
                    </mxGeometry>
                </mxCell>
                <mxCell id="3" value=":Main Menu" style="shape=umlBoundary;whiteSpace=wrap;html=1;shadow=0;sketch=0;" vertex="1" parent="1">
                    <mxGeometry x="400" y="40" width="100" height="80" as="geometry"/>
                </mxCell>
                <mxCell id="8" style="edgeStyle=none;orthogonalLoop=1;jettySize=auto;html=1;endArrow=none;startSize=14;endSize=14;sourcePerimeterSpacing=16;targetPerimeterSpacing=8;rounded=1;endFill=0;" edge="1" parent="1" source="7">
                    <mxGeometry relative="1" as="geometry">
                        <mxPoint x="390" y="80" as="targetPoint"/>
                        <Array as="points">
                            <mxPoint x="100" y="80"/>
                        </Array>
                    </mxGeometry>
                </mxCell>
                <mxCell id="9" value="1: Select&amp;nbsp;&lt;i&gt;Play&lt;/i&gt;" style="edgeLabel;html=1;align=center;verticalAlign=middle;resizable=0;points=[];" vertex="1" connectable="0" parent="8">
                    <mxGeometry x="0.0895" relative="1" as="geometry">
                        <mxPoint x="2" y="-20" as="offset"/>
                    </mxGeometry>
                </mxCell>
                <mxCell id="15" style="edgeStyle=none;rounded=1;orthogonalLoop=1;jettySize=auto;html=1;endArrow=none;startSize=14;endSize=14;sourcePerimeterSpacing=16;targetPerimeterSpacing=32;endFill=0;" edge="1" parent="1">
                    <mxGeometry relative="1" as="geometry">
                        <mxPoint x="100" y="230" as="sourcePoint"/>
                        <mxPoint x="390" y="280" as="targetPoint"/>
                        <Array as="points">
                            <mxPoint x="100" y="280"/>
                        </Array>
                    </mxGeometry>
                </mxCell>
                <mxCell id="17" value="3: Select&amp;nbsp;&lt;i&gt;Create Profile&lt;/i&gt;" style="edgeLabel;html=1;align=center;verticalAlign=middle;resizable=0;points=[];" vertex="1" connectable="0" parent="15">
                    <mxGeometry x="-0.0968" y="1" relative="1" as="geometry">
                        <mxPoint x="43" y="-19" as="offset"/>
                    </mxGeometry>
                </mxCell>
                <mxCell id="24" style="edgeStyle=none;rounded=1;orthogonalLoop=1;jettySize=auto;html=1;endArrow=none;startSize=14;endSize=14;sourcePerimeterSpacing=16;targetPerimeterSpacing=8;endFill=0;" edge="1" parent="1">
                    <mxGeometry relative="1" as="geometry">
                        <mxPoint x="100" y="230" as="sourcePoint"/>
                        <mxPoint x="390" y="480" as="targetPoint"/>
                        <Array as="points">
                            <mxPoint x="100" y="480"/>
                        </Array>
                    </mxGeometry>
                </mxCell>
                <mxCell id="25" value="5: Input &lt;b&gt;username&amp;nbsp;&lt;/b&gt;and select the &lt;b&gt;profile picture&lt;/b&gt;" style="edgeLabel;html=1;align=center;verticalAlign=middle;resizable=0;points=[];" vertex="1" connectable="0" parent="24">
                    <mxGeometry x="0.3448" y="2" relative="1" as="geometry">
                        <mxPoint x="27" y="-18" as="offset"/>
                    </mxGeometry>
                </mxCell>
                <mxCell id="30" style="edgeStyle=none;rounded=1;orthogonalLoop=1;jettySize=auto;html=1;endArrow=none;startSize=14;endSize=14;sourcePerimeterSpacing=16;targetPerimeterSpacing=8;endFill=0;" edge="1" parent="1">
                    <mxGeometry relative="1" as="geometry">
                        <mxPoint x="100" y="230" as="sourcePoint"/>
                        <mxPoint x="390" y="680" as="targetPoint"/>
                        <Array as="points">
                            <mxPoint x="100" y="680"/>
                        </Array>
                    </mxGeometry>
                </mxCell>
                <mxCell id="31" value="7: Select&amp;nbsp;&lt;i&gt;Confirm&lt;/i&gt;" style="edgeLabel;html=1;align=center;verticalAlign=middle;resizable=0;points=[];" vertex="1" connectable="0" parent="30">
                    <mxGeometry x="0.4852" y="-3" relative="1" as="geometry">
                        <mxPoint x="-6" y="-23" as="offset"/>
                    </mxGeometry>
                </mxCell>
                <mxCell id="7" value=":Unregistered User" style="shape=umlActor;verticalLabelPosition=bottom;verticalAlign=top;html=1;shadow=0;sketch=0;" vertex="1" parent="1">
                    <mxGeometry x="80" y="120" width="40" height="80" as="geometry"/>
                </mxCell>
                <mxCell id="22" value="" style="edgeStyle=none;rounded=1;orthogonalLoop=1;jettySize=auto;html=1;endArrow=none;startSize=14;endSize=14;sourcePerimeterSpacing=8;targetPerimeterSpacing=8;endFill=0;" edge="1" parent="1" source="10" target="21">
                    <mxGeometry relative="1" as="geometry"/>
                </mxCell>
                <mxCell id="23" value="4: Overlay the &lt;u&gt;User Creation&lt;/u&gt; screen" style="edgeLabel;html=1;align=center;verticalAlign=middle;resizable=0;points=[];" vertex="1" connectable="0" parent="22">
                    <mxGeometry x="-0.1966" y="1" relative="1" as="geometry">
                        <mxPoint x="-101" as="offset"/>
                    </mxGeometry>
                </mxCell>
                <mxCell id="10" value=":Profile Selection Screen" style="shape=umlBoundary;whiteSpace=wrap;html=1;shadow=0;sketch=0;" vertex="1" parent="1">
                    <mxGeometry x="400" y="240" width="100" height="80" as="geometry"/>
                </mxCell>
                <mxCell id="28" value="" style="edgeStyle=none;rounded=1;orthogonalLoop=1;jettySize=auto;html=1;endArrow=none;startSize=14;endSize=14;sourcePerimeterSpacing=16;targetPerimeterSpacing=8;endFill=0;" edge="1" parent="1" source="21" target="27">
                    <mxGeometry relative="1" as="geometry"/>
                </mxCell>
                <mxCell id="29" value="6: Overlay the &lt;u&gt;Confirmation&lt;/u&gt;&amp;nbsp;screen" style="edgeLabel;html=1;align=center;verticalAlign=middle;resizable=0;points=[];" vertex="1" connectable="0" parent="28">
                    <mxGeometry x="-0.1794" y="-2" relative="1" as="geometry">
                        <mxPoint x="-98" y="5" as="offset"/>
                    </mxGeometry>
                </mxCell>
                <mxCell id="46" style="edgeStyle=none;rounded=1;orthogonalLoop=1;jettySize=auto;html=1;endArrow=none;endFill=0;startSize=14;endSize=14;sourcePerimeterSpacing=16;targetPerimeterSpacing=8;" edge="1" parent="1" source="21">
                    <mxGeometry relative="1" as="geometry">
                        <mxPoint x="710" y="480" as="targetPoint"/>
                    </mxGeometry>
                </mxCell>
                <mxCell id="48" value="5.1: Check inputs for validity" style="edgeLabel;html=1;align=center;verticalAlign=middle;resizable=0;points=[];" vertex="1" connectable="0" parent="46">
                    <mxGeometry x="-0.3044" relative="1" as="geometry">
                        <mxPoint x="17" y="-20" as="offset"/>
                    </mxGeometry>
                </mxCell>
                <mxCell id="21" value=":User Creation Screen" style="shape=umlBoundary;whiteSpace=wrap;html=1;shadow=0;sketch=0;" vertex="1" parent="1">
                    <mxGeometry x="400" y="440" width="100" height="80" as="geometry"/>
                </mxCell>
                <mxCell id="33" style="edgeStyle=none;rounded=1;orthogonalLoop=1;jettySize=auto;html=1;endArrow=none;startSize=14;endSize=14;sourcePerimeterSpacing=16;targetPerimeterSpacing=8;entryX=0.484;entryY=1.037;entryDx=0;entryDy=0;entryPerimeter=0;endFill=0;" edge="1" parent="1" source="27" target="32">
                    <mxGeometry relative="1" as="geometry">
                        <mxPoint x="760" y="530" as="targetPoint"/>
                        <Array as="points">
                            <mxPoint x="760" y="680"/>
                        </Array>
                    </mxGeometry>
                </mxCell>
                <mxCell id="45" value="8: Send data" style="edgeLabel;html=1;align=center;verticalAlign=middle;resizable=0;points=[];" vertex="1" connectable="0" parent="33">
                    <mxGeometry x="-0.5947" y="-2" relative="1" as="geometry">
                        <mxPoint x="33" y="-22" as="offset"/>
                    </mxGeometry>
                </mxCell>
                <mxCell id="27" value=":Confirmation Screen" style="shape=umlBoundary;whiteSpace=wrap;html=1;shadow=0;sketch=0;" vertex="1" parent="1">
                    <mxGeometry x="400" y="640" width="100" height="80" as="geometry"/>
                </mxCell>
                <mxCell id="50" value="" style="edgeStyle=none;rounded=1;orthogonalLoop=1;jettySize=auto;html=1;endArrow=none;endFill=0;startSize=14;endSize=6;sourcePerimeterSpacing=8;targetPerimeterSpacing=8;" edge="1" parent="1">
                    <mxGeometry relative="1" as="geometry">
                        <mxPoint x="759.71" y="430" as="sourcePoint"/>
                        <mxPoint x="759.71" y="336" as="targetPoint"/>
                    </mxGeometry>
                </mxCell>
                <mxCell id="52" value="9: Record entry in system" style="edgeLabel;html=1;align=center;verticalAlign=middle;resizable=0;points=[];" vertex="1" connectable="0" parent="50">
                    <mxGeometry x="0.305" relative="1" as="geometry">
                        <mxPoint x="-80" y="11" as="offset"/>
                    </mxGeometry>
                </mxCell>
                <mxCell id="32" value=":Profile Creation Controller" style="ellipse;shape=umlControl;whiteSpace=wrap;html=1;shadow=0;sketch=0;" vertex="1" parent="1">
                    <mxGeometry x="720" y="430" width="80" height="90" as="geometry"/>
                </mxCell>
                <mxCell id="37" value="" style="html=1;verticalAlign=bottom;endArrow=block;rounded=1;startSize=14;endSize=6;sourcePerimeterSpacing=16;targetPerimeterSpacing=8;" edge="1" parent="1">
                    <mxGeometry width="80" relative="1" as="geometry">
                        <mxPoint x="120" y="670" as="sourcePoint"/>
                        <mxPoint x="290" y="670" as="targetPoint"/>
                    </mxGeometry>
                </mxCell>
                <mxCell id="38" value="" style="html=1;verticalAlign=bottom;endArrow=block;rounded=1;startSize=14;endSize=6;sourcePerimeterSpacing=16;targetPerimeterSpacing=8;" edge="1" parent="1">
                    <mxGeometry width="80" relative="1" as="geometry">
                        <mxPoint x="440" y="560" as="sourcePoint"/>
                        <mxPoint x="440" y="620" as="targetPoint"/>
                    </mxGeometry>
                </mxCell>
                <mxCell id="39" value="" style="html=1;verticalAlign=bottom;endArrow=block;rounded=1;startSize=14;endSize=6;sourcePerimeterSpacing=16;targetPerimeterSpacing=8;endFill=1;" edge="1" parent="1">
                    <mxGeometry width="80" relative="1" as="geometry">
                        <mxPoint x="120" y="470" as="sourcePoint"/>
                        <mxPoint x="380" y="470" as="targetPoint"/>
                    </mxGeometry>
                </mxCell>
                <mxCell id="40" value="" style="html=1;verticalAlign=bottom;endArrow=block;rounded=1;startSize=14;endSize=6;sourcePerimeterSpacing=16;targetPerimeterSpacing=8;" edge="1" parent="1">
                    <mxGeometry width="80" relative="1" as="geometry">
                        <mxPoint x="160" y="270" as="sourcePoint"/>
                        <mxPoint x="360" y="270" as="targetPoint"/>
                    </mxGeometry>
                </mxCell>
                <mxCell id="41" value="" style="html=1;verticalAlign=bottom;endArrow=block;rounded=1;startSize=14;endSize=6;sourcePerimeterSpacing=16;targetPerimeterSpacing=8;" edge="1" parent="1">
                    <mxGeometry width="80" relative="1" as="geometry">
                        <mxPoint x="440" y="350" as="sourcePoint"/>
                        <mxPoint x="440" y="410" as="targetPoint"/>
                    </mxGeometry>
                </mxCell>
                <mxCell id="42" value="" style="html=1;verticalAlign=bottom;endArrow=block;rounded=1;startSize=14;endSize=6;sourcePerimeterSpacing=16;targetPerimeterSpacing=8;" edge="1" parent="1">
                    <mxGeometry width="80" relative="1" as="geometry">
                        <mxPoint x="440" y="150" as="sourcePoint"/>
                        <mxPoint x="440" y="210" as="targetPoint"/>
                    </mxGeometry>
                </mxCell>
                <mxCell id="43" value="" style="html=1;verticalAlign=bottom;endArrow=block;rounded=1;startSize=14;endSize=6;sourcePerimeterSpacing=16;targetPerimeterSpacing=8;" edge="1" parent="1">
                    <mxGeometry width="80" relative="1" as="geometry">
                        <mxPoint x="150" y="70" as="sourcePoint"/>
                        <mxPoint x="350" y="70" as="targetPoint"/>
                    </mxGeometry>
                </mxCell>
                <mxCell id="44" value="" style="html=1;verticalAlign=bottom;endArrow=block;rounded=1;startSize=14;endSize=6;sourcePerimeterSpacing=16;targetPerimeterSpacing=8;" edge="1" parent="1">
                    <mxGeometry width="80" relative="1" as="geometry">
                        <mxPoint x="550" y="670" as="sourcePoint"/>
                        <mxPoint x="720" y="670" as="targetPoint"/>
                    </mxGeometry>
                </mxCell>
                <mxCell id="47" value="" style="html=1;verticalAlign=bottom;endArrow=block;rounded=1;startSize=14;endSize=6;sourcePerimeterSpacing=16;targetPerimeterSpacing=8;endFill=1;" edge="1" parent="1">
                    <mxGeometry width="80" relative="1" as="geometry">
                        <mxPoint x="530" y="470" as="sourcePoint"/>
                        <mxPoint x="700" y="470" as="targetPoint"/>
                    </mxGeometry>
                </mxCell>
                <mxCell id="49" value="Entity Object" style="ellipse;shape=umlEntity;whiteSpace=wrap;html=1;shadow=0;sketch=0;" vertex="1" parent="1">
                    <mxGeometry x="720" y="240" width="80" height="80" as="geometry"/>
                </mxCell>
                <mxCell id="51" value="" style="html=1;verticalAlign=bottom;endArrow=block;rounded=1;startSize=14;endSize=6;sourcePerimeterSpacing=16;targetPerimeterSpacing=8;" edge="1" parent="1">
                    <mxGeometry width="80" relative="1" as="geometry">
                        <mxPoint x="750" y="420" as="sourcePoint"/>
                        <mxPoint x="750" y="340" as="targetPoint"/>
                    </mxGeometry>
                </mxCell>
                <mxCell id="63" value="" style="edgeStyle=none;rounded=1;orthogonalLoop=1;jettySize=auto;html=1;endArrow=none;startSize=14;endSize=14;sourcePerimeterSpacing=8;targetPerimeterSpacing=8;endFill=0;" edge="1" parent="1" source="65" target="77">
                    <mxGeometry relative="1" as="geometry"/>
                </mxCell>
                <mxCell id="64" value="2: Show the &lt;u&gt;Profile Selection&lt;/u&gt; screen" style="edgeLabel;html=1;align=center;verticalAlign=middle;resizable=0;points=[];" vertex="1" connectable="0" parent="63">
                    <mxGeometry x="-0.3248" y="-1" relative="1" as="geometry">
                        <mxPoint x="-99" y="7" as="offset"/>
                    </mxGeometry>
                </mxCell>
                <mxCell id="65" value=":Main Menu" style="shape=umlBoundary;whiteSpace=wrap;html=1;shadow=0;sketch=0;" vertex="1" parent="1">
                    <mxGeometry x="420" y="890" width="100" height="80" as="geometry"/>
                </mxCell>
                <mxCell id="66" style="edgeStyle=none;orthogonalLoop=1;jettySize=auto;html=1;endArrow=none;startSize=14;endSize=14;sourcePerimeterSpacing=16;targetPerimeterSpacing=8;rounded=1;endFill=0;" edge="1" parent="1" source="74">
                    <mxGeometry relative="1" as="geometry">
                        <mxPoint x="410" y="930" as="targetPoint"/>
                        <Array as="points">
                            <mxPoint x="120" y="930"/>
                        </Array>
                    </mxGeometry>
                </mxCell>
                <mxCell id="67" value="1: Select&amp;nbsp;&lt;i&gt;Play&lt;/i&gt;" style="edgeLabel;html=1;align=center;verticalAlign=middle;resizable=0;points=[];" vertex="1" connectable="0" parent="66">
                    <mxGeometry x="0.0895" relative="1" as="geometry">
                        <mxPoint x="2" y="-20" as="offset"/>
                    </mxGeometry>
                </mxCell>
                <mxCell id="68" style="edgeStyle=none;rounded=1;orthogonalLoop=1;jettySize=auto;html=1;endArrow=none;startSize=14;endSize=14;sourcePerimeterSpacing=16;targetPerimeterSpacing=32;endFill=0;" edge="1" parent="1">
                    <mxGeometry relative="1" as="geometry">
                        <mxPoint x="120" y="1080" as="sourcePoint"/>
                        <mxPoint x="410" y="1130" as="targetPoint"/>
                        <Array as="points">
                            <mxPoint x="120" y="1130"/>
                        </Array>
                    </mxGeometry>
                </mxCell>
                <mxCell id="69" value="3: Select&amp;nbsp;&lt;i&gt;Create Profile&lt;/i&gt;" style="edgeLabel;html=1;align=center;verticalAlign=middle;resizable=0;points=[];" vertex="1" connectable="0" parent="68">
                    <mxGeometry x="-0.0968" y="1" relative="1" as="geometry">
                        <mxPoint x="43" y="-19" as="offset"/>
                    </mxGeometry>
                </mxCell>
                <mxCell id="70" style="edgeStyle=none;rounded=1;orthogonalLoop=1;jettySize=auto;html=1;endArrow=none;startSize=14;endSize=14;sourcePerimeterSpacing=16;targetPerimeterSpacing=8;endFill=0;" edge="1" parent="1">
                    <mxGeometry relative="1" as="geometry">
                        <mxPoint x="120" y="1080" as="sourcePoint"/>
                        <mxPoint x="410" y="1330" as="targetPoint"/>
                        <Array as="points">
                            <mxPoint x="120" y="1330"/>
                        </Array>
                    </mxGeometry>
                </mxCell>
                <mxCell id="71" value="5: Input &lt;b&gt;username&amp;nbsp;&lt;/b&gt;and select the &lt;b&gt;profile picture&lt;/b&gt;" style="edgeLabel;html=1;align=center;verticalAlign=middle;resizable=0;points=[];" vertex="1" connectable="0" parent="70">
                    <mxGeometry x="0.3448" y="2" relative="1" as="geometry">
                        <mxPoint x="27" y="-18" as="offset"/>
                    </mxGeometry>
                </mxCell>
                <mxCell id="72" style="edgeStyle=none;rounded=1;orthogonalLoop=1;jettySize=auto;html=1;endArrow=none;startSize=14;endSize=14;sourcePerimeterSpacing=16;targetPerimeterSpacing=8;endFill=0;" edge="1" parent="1">
                    <mxGeometry relative="1" as="geometry">
                        <mxPoint x="120" y="1080" as="sourcePoint"/>
                        <mxPoint x="410" y="1530" as="targetPoint"/>
                        <Array as="points">
                            <mxPoint x="120" y="1530"/>
                        </Array>
                    </mxGeometry>
                </mxCell>
                <mxCell id="73" value="7: Select&amp;nbsp;&lt;i&gt;Cancel&amp;nbsp;&lt;/i&gt;" style="edgeLabel;html=1;align=center;verticalAlign=middle;resizable=0;points=[];" vertex="1" connectable="0" parent="72">
                    <mxGeometry x="0.4852" y="-3" relative="1" as="geometry">
                        <mxPoint x="-6" y="-23" as="offset"/>
                    </mxGeometry>
                </mxCell>
                <mxCell id="74" value=":Unregistered User" style="shape=umlActor;verticalLabelPosition=bottom;verticalAlign=top;html=1;shadow=0;sketch=0;" vertex="1" parent="1">
                    <mxGeometry x="100" y="970" width="40" height="80" as="geometry"/>
                </mxCell>
                <mxCell id="75" value="" style="edgeStyle=none;rounded=1;orthogonalLoop=1;jettySize=auto;html=1;endArrow=none;startSize=14;endSize=14;sourcePerimeterSpacing=8;targetPerimeterSpacing=8;endFill=0;" edge="1" parent="1" source="77" target="82">
                    <mxGeometry relative="1" as="geometry"/>
                </mxCell>
                <mxCell id="76" value="4: Overlay the &lt;u&gt;User Creation&lt;/u&gt; screen" style="edgeLabel;html=1;align=center;verticalAlign=middle;resizable=0;points=[];" vertex="1" connectable="0" parent="75">
                    <mxGeometry x="-0.1966" y="1" relative="1" as="geometry">
                        <mxPoint x="-101" as="offset"/>
                    </mxGeometry>
                </mxCell>
                <mxCell id="77" value=":Profile Selection Screen" style="shape=umlBoundary;whiteSpace=wrap;html=1;shadow=0;sketch=0;" vertex="1" parent="1">
                    <mxGeometry x="420" y="1090" width="100" height="80" as="geometry"/>
                </mxCell>
                <mxCell id="78" value="" style="edgeStyle=none;rounded=1;orthogonalLoop=1;jettySize=auto;html=1;endArrow=none;startSize=14;endSize=14;sourcePerimeterSpacing=16;targetPerimeterSpacing=8;endFill=0;" edge="1" parent="1" source="82" target="85">
                    <mxGeometry relative="1" as="geometry"/>
                </mxCell>
                <mxCell id="79" value="6: Overlay the &lt;u&gt;Confirmation&lt;/u&gt;&amp;nbsp;screen" style="edgeLabel;html=1;align=center;verticalAlign=middle;resizable=0;points=[];" vertex="1" connectable="0" parent="78">
                    <mxGeometry x="-0.1794" y="-2" relative="1" as="geometry">
                        <mxPoint x="-98" y="5" as="offset"/>
                    </mxGeometry>
                </mxCell>
                <mxCell id="80" style="edgeStyle=none;rounded=1;orthogonalLoop=1;jettySize=auto;html=1;endArrow=none;endFill=0;startSize=14;endSize=14;sourcePerimeterSpacing=16;targetPerimeterSpacing=8;" edge="1" parent="1" source="82">
                    <mxGeometry relative="1" as="geometry">
                        <mxPoint x="730" y="1330" as="targetPoint"/>
                    </mxGeometry>
                </mxCell>
                <mxCell id="81" value="5.1: Check inputs for validity" style="edgeLabel;html=1;align=center;verticalAlign=middle;resizable=0;points=[];" vertex="1" connectable="0" parent="80">
                    <mxGeometry x="-0.3044" relative="1" as="geometry">
                        <mxPoint x="17" y="-20" as="offset"/>
                    </mxGeometry>
                </mxCell>
                <mxCell id="82" value=":User Creation Screen" style="shape=umlBoundary;whiteSpace=wrap;html=1;shadow=0;sketch=0;" vertex="1" parent="1">
                    <mxGeometry x="420" y="1290" width="100" height="80" as="geometry"/>
                </mxCell>
                <mxCell id="100" style="edgeStyle=none;rounded=1;orthogonalLoop=1;jettySize=auto;html=1;endArrow=none;endFill=0;startSize=14;endSize=6;sourcePerimeterSpacing=8;targetPerimeterSpacing=8;" edge="1" parent="1" source="85">
                    <mxGeometry relative="1" as="geometry">
                        <mxPoint x="530" y="1130" as="targetPoint"/>
                        <Array as="points">
                            <mxPoint x="840" y="1530"/>
                            <mxPoint x="840" y="1130"/>
                        </Array>
                    </mxGeometry>
                </mxCell>
                <mxCell id="102" value="8: Destroy overlays" style="edgeLabel;html=1;align=center;verticalAlign=middle;resizable=0;points=[];" vertex="1" connectable="0" parent="100">
                    <mxGeometry x="-0.8133" y="1" relative="1" as="geometry">
                        <mxPoint x="16" y="-19" as="offset"/>
                    </mxGeometry>
                </mxCell>
                <mxCell id="85" value=":Confirmation Screen" style="shape=umlBoundary;whiteSpace=wrap;html=1;shadow=0;sketch=0;" vertex="1" parent="1">
                    <mxGeometry x="420" y="1490" width="100" height="80" as="geometry"/>
                </mxCell>
                <mxCell id="88" value=":Profile Creation Controller" style="ellipse;shape=umlControl;whiteSpace=wrap;html=1;shadow=0;sketch=0;" vertex="1" parent="1">
                    <mxGeometry x="740" y="1280" width="80" height="90" as="geometry"/>
                </mxCell>
                <mxCell id="89" value="" style="html=1;verticalAlign=bottom;endArrow=block;rounded=1;startSize=14;endSize=6;sourcePerimeterSpacing=16;targetPerimeterSpacing=8;" edge="1" parent="1">
                    <mxGeometry width="80" relative="1" as="geometry">
                        <mxPoint x="140" y="1520" as="sourcePoint"/>
                        <mxPoint x="310" y="1520" as="targetPoint"/>
                    </mxGeometry>
                </mxCell>
                <mxCell id="90" value="" style="html=1;verticalAlign=bottom;endArrow=block;rounded=1;startSize=14;endSize=6;sourcePerimeterSpacing=16;targetPerimeterSpacing=8;" edge="1" parent="1">
                    <mxGeometry width="80" relative="1" as="geometry">
                        <mxPoint x="460" y="1410" as="sourcePoint"/>
                        <mxPoint x="460" y="1470" as="targetPoint"/>
                    </mxGeometry>
                </mxCell>
                <mxCell id="91" value="" style="html=1;verticalAlign=bottom;endArrow=block;rounded=1;startSize=14;endSize=6;sourcePerimeterSpacing=16;targetPerimeterSpacing=8;endFill=1;" edge="1" parent="1">
                    <mxGeometry width="80" relative="1" as="geometry">
                        <mxPoint x="140" y="1320" as="sourcePoint"/>
                        <mxPoint x="400" y="1320" as="targetPoint"/>
                    </mxGeometry>
                </mxCell>
                <mxCell id="92" value="" style="html=1;verticalAlign=bottom;endArrow=block;rounded=1;startSize=14;endSize=6;sourcePerimeterSpacing=16;targetPerimeterSpacing=8;" edge="1" parent="1">
                    <mxGeometry width="80" relative="1" as="geometry">
                        <mxPoint x="180" y="1120" as="sourcePoint"/>
                        <mxPoint x="380" y="1120" as="targetPoint"/>
                    </mxGeometry>
                </mxCell>
                <mxCell id="93" value="" style="html=1;verticalAlign=bottom;endArrow=block;rounded=1;startSize=14;endSize=6;sourcePerimeterSpacing=16;targetPerimeterSpacing=8;" edge="1" parent="1">
                    <mxGeometry width="80" relative="1" as="geometry">
                        <mxPoint x="460" y="1200" as="sourcePoint"/>
                        <mxPoint x="460" y="1260" as="targetPoint"/>
                    </mxGeometry>
                </mxCell>
                <mxCell id="94" value="" style="html=1;verticalAlign=bottom;endArrow=block;rounded=1;startSize=14;endSize=6;sourcePerimeterSpacing=16;targetPerimeterSpacing=8;" edge="1" parent="1">
                    <mxGeometry width="80" relative="1" as="geometry">
                        <mxPoint x="460" y="1000" as="sourcePoint"/>
                        <mxPoint x="460" y="1060" as="targetPoint"/>
                    </mxGeometry>
                </mxCell>
                <mxCell id="95" value="" style="html=1;verticalAlign=bottom;endArrow=block;rounded=1;startSize=14;endSize=6;sourcePerimeterSpacing=16;targetPerimeterSpacing=8;" edge="1" parent="1">
                    <mxGeometry width="80" relative="1" as="geometry">
                        <mxPoint x="170" y="920" as="sourcePoint"/>
                        <mxPoint x="370" y="920" as="targetPoint"/>
                    </mxGeometry>
                </mxCell>
                <mxCell id="97" value="" style="html=1;verticalAlign=bottom;endArrow=block;rounded=1;startSize=14;endSize=6;sourcePerimeterSpacing=16;targetPerimeterSpacing=8;endFill=1;" edge="1" parent="1">
                    <mxGeometry width="80" relative="1" as="geometry">
                        <mxPoint x="550" y="1320" as="sourcePoint"/>
                        <mxPoint x="720" y="1320" as="targetPoint"/>
                    </mxGeometry>
                </mxCell>
                <mxCell id="101" value="" style="html=1;verticalAlign=bottom;endArrow=block;rounded=1;startSize=14;endSize=6;sourcePerimeterSpacing=16;targetPerimeterSpacing=8;endFill=1;" edge="1" parent="1">
                    <mxGeometry width="80" relative="1" as="geometry">
                        <mxPoint x="570" y="1520" as="sourcePoint"/>
                        <mxPoint x="740" y="1520" as="targetPoint"/>
                    </mxGeometry>
                </mxCell>
                <mxCell id="103" value="" style="edgeStyle=none;rounded=1;orthogonalLoop=1;jettySize=auto;html=1;endArrow=none;startSize=14;endSize=14;sourcePerimeterSpacing=8;targetPerimeterSpacing=8;endFill=0;" edge="1" parent="1" source="105" target="117">
                    <mxGeometry relative="1" as="geometry"/>
                </mxCell>
                <mxCell id="104" value="2: Show the &lt;u&gt;Level Editor&lt;/u&gt;&amp;nbsp;screen" style="edgeLabel;html=1;align=center;verticalAlign=middle;resizable=0;points=[];" vertex="1" connectable="0" parent="103">
                    <mxGeometry x="-0.3248" y="-1" relative="1" as="geometry">
                        <mxPoint x="-99" y="7" as="offset"/>
                    </mxGeometry>
                </mxCell>
                <mxCell id="105" value=":Main Menu" style="shape=umlBoundary;whiteSpace=wrap;html=1;shadow=0;sketch=0;" vertex="1" parent="1">
                    <mxGeometry x="440" y="1720" width="100" height="80" as="geometry"/>
                </mxCell>
                <mxCell id="106" style="edgeStyle=none;orthogonalLoop=1;jettySize=auto;html=1;endArrow=none;startSize=14;endSize=14;sourcePerimeterSpacing=16;targetPerimeterSpacing=8;rounded=1;endFill=0;" edge="1" parent="1" source="114">
                    <mxGeometry relative="1" as="geometry">
                        <mxPoint x="430" y="1760" as="targetPoint"/>
                        <Array as="points">
                            <mxPoint x="140" y="1760"/>
                        </Array>
                    </mxGeometry>
                </mxCell>
                <mxCell id="107" value="1: Select&amp;nbsp;&lt;i&gt;Level Editor&lt;/i&gt;" style="edgeLabel;html=1;align=center;verticalAlign=middle;resizable=0;points=[];" vertex="1" connectable="0" parent="106">
                    <mxGeometry x="0.0895" relative="1" as="geometry">
                        <mxPoint x="2" y="-20" as="offset"/>
                    </mxGeometry>
                </mxCell>
                <mxCell id="110" style="edgeStyle=none;rounded=1;orthogonalLoop=1;jettySize=auto;html=1;endArrow=none;startSize=14;endSize=14;sourcePerimeterSpacing=16;targetPerimeterSpacing=8;endFill=0;" edge="1" parent="1">
                    <mxGeometry relative="1" as="geometry">
                        <mxPoint x="140" y="1910" as="sourcePoint"/>
                        <mxPoint x="430" y="2160" as="targetPoint"/>
                        <Array as="points">
                            <mxPoint x="140" y="2160"/>
                        </Array>
                    </mxGeometry>
                </mxCell>
                <mxCell id="111" value="4: Select (&lt;b&gt;Size,&amp;nbsp;&lt;/b&gt;&lt;b&gt;Difficulty)&lt;/b&gt;" style="edgeLabel;html=1;align=center;verticalAlign=middle;resizable=0;points=[];" vertex="1" connectable="0" parent="110">
                    <mxGeometry x="0.3448" y="2" relative="1" as="geometry">
                        <mxPoint x="27" y="-18" as="offset"/>
                    </mxGeometry>
                </mxCell>
                <mxCell id="138" style="edgeStyle=none;rounded=1;orthogonalLoop=1;jettySize=auto;html=1;endArrow=none;endFill=0;startSize=14;endSize=6;sourcePerimeterSpacing=8;targetPerimeterSpacing=8;" edge="1" parent="1">
                    <mxGeometry relative="1" as="geometry">
                        <mxPoint x="140" y="1910" as="sourcePoint"/>
                        <mxPoint x="430" y="1960" as="targetPoint"/>
                        <Array as="points">
                            <mxPoint x="140" y="1960"/>
                        </Array>
                    </mxGeometry>
                </mxCell>
                <mxCell id="144" value="6: Select &lt;i&gt;Publish&lt;/i&gt;" style="edgeLabel;html=1;align=center;verticalAlign=middle;resizable=0;points=[];" vertex="1" connectable="0" parent="138">
                    <mxGeometry x="0.3007" y="-1" relative="1" as="geometry">
                        <mxPoint x="-11" y="-21" as="offset"/>
                    </mxGeometry>
                </mxCell>
                <mxCell id="114" value=":Unregistered User" style="shape=umlActor;verticalLabelPosition=bottom;verticalAlign=top;html=1;shadow=0;sketch=0;" vertex="1" parent="1">
                    <mxGeometry x="120" y="1800" width="40" height="80" as="geometry"/>
                </mxCell>
                <mxCell id="115" value="" style="edgeStyle=none;rounded=1;orthogonalLoop=1;jettySize=auto;html=1;endArrow=none;startSize=14;endSize=14;sourcePerimeterSpacing=8;targetPerimeterSpacing=8;endFill=0;" edge="1" parent="1" source="117" target="122">
                    <mxGeometry relative="1" as="geometry"/>
                </mxCell>
                <mxCell id="116" value="3: Overlay the &lt;u&gt;Size &amp;amp; Difficulty&lt;/u&gt;&amp;nbsp;screen" style="edgeLabel;html=1;align=center;verticalAlign=middle;resizable=0;points=[];" vertex="1" connectable="0" parent="115">
                    <mxGeometry x="-0.1966" y="1" relative="1" as="geometry">
                        <mxPoint x="-111" as="offset"/>
                    </mxGeometry>
                </mxCell>
                <mxCell id="140" style="edgeStyle=none;rounded=1;orthogonalLoop=1;jettySize=auto;html=1;endArrow=none;endFill=0;startSize=14;endSize=6;sourcePerimeterSpacing=8;targetPerimeterSpacing=8;" edge="1" parent="1" source="117">
                    <mxGeometry relative="1" as="geometry">
                        <mxPoint x="750" y="1960" as="targetPoint"/>
                    </mxGeometry>
                </mxCell>
                <mxCell id="147" value="7: Send level data (data)" style="edgeLabel;html=1;align=center;verticalAlign=middle;resizable=0;points=[];" vertex="1" connectable="0" parent="140">
                    <mxGeometry x="-0.1122" y="-1" relative="1" as="geometry">
                        <mxPoint x="2" y="-21" as="offset"/>
                    </mxGeometry>
                </mxCell>
                <mxCell id="117" value=":Level Editor" style="shape=umlBoundary;whiteSpace=wrap;html=1;shadow=0;sketch=0;" vertex="1" parent="1">
                    <mxGeometry x="440" y="1920" width="100" height="80" as="geometry"/>
                </mxCell>
                <mxCell id="139" style="edgeStyle=none;rounded=1;orthogonalLoop=1;jettySize=auto;html=1;endArrow=none;endFill=0;startSize=14;endSize=6;sourcePerimeterSpacing=8;targetPerimeterSpacing=8;" edge="1" parent="1">
                    <mxGeometry relative="1" as="geometry">
                        <mxPoint x="550" y="1980" as="targetPoint"/>
                        <mxPoint x="550" y="2160" as="sourcePoint"/>
                        <Array as="points">
                            <mxPoint x="600" y="2160"/>
                            <mxPoint x="600" y="1980"/>
                        </Array>
                    </mxGeometry>
                </mxCell>
                <mxCell id="142" value="5: Send (Size, Difficulty)" style="edgeLabel;html=1;align=center;verticalAlign=middle;resizable=0;points=[];" vertex="1" connectable="0" parent="139">
                    <mxGeometry x="-0.044" y="1" relative="1" as="geometry">
                        <mxPoint x="91" y="-10" as="offset"/>
                    </mxGeometry>
                </mxCell>
                <mxCell id="122" value=":Size &amp;amp; Difficulty Screen" style="shape=umlBoundary;whiteSpace=wrap;html=1;shadow=0;sketch=0;" vertex="1" parent="1">
                    <mxGeometry x="440" y="2120" width="100" height="80" as="geometry"/>
                </mxCell>
                <mxCell id="150" value="" style="edgeStyle=none;rounded=1;orthogonalLoop=1;jettySize=auto;html=1;endArrow=none;endFill=0;startSize=14;endSize=6;sourcePerimeterSpacing=8;targetPerimeterSpacing=8;" edge="1" parent="1" source="126" target="149">
                    <mxGeometry relative="1" as="geometry"/>
                </mxCell>
                <mxCell id="151" value="8: Create (data)" style="edgeLabel;html=1;align=center;verticalAlign=middle;resizable=0;points=[];" vertex="1" connectable="0" parent="150">
                    <mxGeometry x="-0.476" y="2" relative="1" as="geometry">
                        <mxPoint x="-58" y="-27" as="offset"/>
                    </mxGeometry>
                </mxCell>
                <mxCell id="126" value=":Level Editor Controller" style="ellipse;shape=umlControl;whiteSpace=wrap;html=1;shadow=0;sketch=0;" vertex="1" parent="1">
                    <mxGeometry x="760" y="1910" width="80" height="90" as="geometry"/>
                </mxCell>
                <mxCell id="129" value="" style="html=1;verticalAlign=bottom;endArrow=block;rounded=1;startSize=14;endSize=6;sourcePerimeterSpacing=16;targetPerimeterSpacing=8;endFill=1;" edge="1" parent="1">
                    <mxGeometry width="80" relative="1" as="geometry">
                        <mxPoint x="160" y="2150" as="sourcePoint"/>
                        <mxPoint x="420" y="2150" as="targetPoint"/>
                    </mxGeometry>
                </mxCell>
                <mxCell id="131" value="" style="html=1;verticalAlign=bottom;endArrow=block;rounded=1;startSize=14;endSize=6;sourcePerimeterSpacing=16;targetPerimeterSpacing=8;" edge="1" parent="1">
                    <mxGeometry width="80" relative="1" as="geometry">
                        <mxPoint x="480" y="2030" as="sourcePoint"/>
                        <mxPoint x="480" y="2090" as="targetPoint"/>
                    </mxGeometry>
                </mxCell>
                <mxCell id="132" value="" style="html=1;verticalAlign=bottom;endArrow=block;rounded=1;startSize=14;endSize=6;sourcePerimeterSpacing=16;targetPerimeterSpacing=8;" edge="1" parent="1">
                    <mxGeometry width="80" relative="1" as="geometry">
                        <mxPoint x="480" y="1830" as="sourcePoint"/>
                        <mxPoint x="480" y="1890" as="targetPoint"/>
                    </mxGeometry>
                </mxCell>
                <mxCell id="133" value="" style="html=1;verticalAlign=bottom;endArrow=block;rounded=1;startSize=14;endSize=6;sourcePerimeterSpacing=16;targetPerimeterSpacing=8;" edge="1" parent="1">
                    <mxGeometry width="80" relative="1" as="geometry">
                        <mxPoint x="190" y="1750" as="sourcePoint"/>
                        <mxPoint x="390" y="1750" as="targetPoint"/>
                    </mxGeometry>
                </mxCell>
                <mxCell id="141" value="" style="html=1;verticalAlign=bottom;endArrow=block;rounded=1;startSize=14;endSize=6;sourcePerimeterSpacing=16;targetPerimeterSpacing=8;" edge="1" parent="1">
                    <mxGeometry width="80" relative="1" as="geometry">
                        <mxPoint x="610" y="2138" as="sourcePoint"/>
                        <mxPoint x="610" y="1998" as="targetPoint"/>
                    </mxGeometry>
                </mxCell>
                <mxCell id="143" value="" style="html=1;verticalAlign=bottom;endArrow=block;rounded=1;startSize=14;endSize=6;sourcePerimeterSpacing=16;targetPerimeterSpacing=8;" edge="1" parent="1">
                    <mxGeometry width="80" relative="1" as="geometry">
                        <mxPoint x="190" y="1950" as="sourcePoint"/>
                        <mxPoint x="390" y="1950" as="targetPoint"/>
                    </mxGeometry>
                </mxCell>
                <mxCell id="146" value="" style="html=1;verticalAlign=bottom;endArrow=block;rounded=1;startSize=14;endSize=6;sourcePerimeterSpacing=16;targetPerimeterSpacing=8;" edge="1" parent="1">
                    <mxGeometry width="80" relative="1" as="geometry">
                        <mxPoint x="585" y="1950" as="sourcePoint"/>
                        <mxPoint x="715" y="1950" as="targetPoint"/>
                    </mxGeometry>
                </mxCell>
                <mxCell id="149" value=":EditorLevel" style="ellipse;shape=umlEntity;whiteSpace=wrap;html=1;shadow=0;sketch=0;" vertex="1" parent="1">
                    <mxGeometry x="760" y="1720" width="80" height="80" as="geometry"/>
                </mxCell>
                <mxCell id="152" value="" style="html=1;verticalAlign=bottom;endArrow=block;rounded=1;startSize=14;endSize=6;sourcePerimeterSpacing=16;targetPerimeterSpacing=8;" edge="1" parent="1">
                    <mxGeometry width="80" relative="1" as="geometry">
                        <mxPoint x="790" y="1890" as="sourcePoint"/>
                        <mxPoint x="790" y="1820" as="targetPoint"/>
                    </mxGeometry>
                </mxCell>
                <mxCell id="153" value="" style="edgeStyle=none;rounded=1;orthogonalLoop=1;jettySize=auto;html=1;endArrow=none;startSize=14;endSize=14;sourcePerimeterSpacing=8;targetPerimeterSpacing=8;endFill=0;" edge="1" parent="1" source="155" target="167">
                    <mxGeometry relative="1" as="geometry"/>
                </mxCell>
                <mxCell id="154" value="2: Show the &lt;u&gt;Level Editor&lt;/u&gt;&amp;nbsp;screen" style="edgeLabel;html=1;align=center;verticalAlign=middle;resizable=0;points=[];" vertex="1" connectable="0" parent="153">
                    <mxGeometry x="-0.3248" y="-1" relative="1" as="geometry">
                        <mxPoint x="-99" y="7" as="offset"/>
                    </mxGeometry>
                </mxCell>
                <mxCell id="155" value=":Main Menu" style="shape=umlBoundary;whiteSpace=wrap;html=1;shadow=0;sketch=0;" vertex="1" parent="1">
                    <mxGeometry x="440" y="2730" width="100" height="80" as="geometry"/>
                </mxCell>
                <mxCell id="156" style="edgeStyle=none;orthogonalLoop=1;jettySize=auto;html=1;endArrow=none;startSize=14;endSize=14;sourcePerimeterSpacing=16;targetPerimeterSpacing=8;rounded=1;endFill=0;" edge="1" parent="1" source="162">
                    <mxGeometry relative="1" as="geometry">
                        <mxPoint x="430" y="2770" as="targetPoint"/>
                        <Array as="points">
                            <mxPoint x="140" y="2770"/>
                        </Array>
                    </mxGeometry>
                </mxCell>
                <mxCell id="157" value="1: Select&amp;nbsp;&lt;i&gt;Level Editor&lt;/i&gt;" style="edgeLabel;html=1;align=center;verticalAlign=middle;resizable=0;points=[];" vertex="1" connectable="0" parent="156">
                    <mxGeometry x="0.0895" relative="1" as="geometry">
                        <mxPoint x="2" y="-20" as="offset"/>
                    </mxGeometry>
                </mxCell>
                <mxCell id="158" style="edgeStyle=none;rounded=1;orthogonalLoop=1;jettySize=auto;html=1;endArrow=none;startSize=14;endSize=14;sourcePerimeterSpacing=16;targetPerimeterSpacing=8;endFill=0;" edge="1" parent="1">
                    <mxGeometry relative="1" as="geometry">
                        <mxPoint x="140" y="2920" as="sourcePoint"/>
                        <mxPoint x="430" y="3170" as="targetPoint"/>
                        <Array as="points">
                            <mxPoint x="140" y="3170"/>
                        </Array>
                    </mxGeometry>
                </mxCell>
                <mxCell id="159" value="4: Select (&lt;b&gt;Size,&amp;nbsp;&lt;/b&gt;&lt;b&gt;Difficulty)&lt;/b&gt;" style="edgeLabel;html=1;align=center;verticalAlign=middle;resizable=0;points=[];" vertex="1" connectable="0" parent="158">
                    <mxGeometry x="0.3448" y="2" relative="1" as="geometry">
                        <mxPoint x="27" y="-18" as="offset"/>
                    </mxGeometry>
                </mxCell>
                <mxCell id="160" style="edgeStyle=none;rounded=1;orthogonalLoop=1;jettySize=auto;html=1;endArrow=none;endFill=0;startSize=14;endSize=6;sourcePerimeterSpacing=8;targetPerimeterSpacing=8;" edge="1" parent="1">
                    <mxGeometry relative="1" as="geometry">
                        <mxPoint x="140" y="2920" as="sourcePoint"/>
                        <mxPoint x="430" y="2970" as="targetPoint"/>
                        <Array as="points">
                            <mxPoint x="140" y="2970"/>
                        </Array>
                    </mxGeometry>
                </mxCell>
                <mxCell id="161" value="6: Select &lt;i&gt;Exit&lt;/i&gt;" style="edgeLabel;html=1;align=center;verticalAlign=middle;resizable=0;points=[];" vertex="1" connectable="0" parent="160">
                    <mxGeometry x="0.3007" y="-1" relative="1" as="geometry">
                        <mxPoint x="-11" y="-21" as="offset"/>
                    </mxGeometry>
                </mxCell>
                <mxCell id="162" value=":Unregistered User" style="shape=umlActor;verticalLabelPosition=bottom;verticalAlign=top;html=1;shadow=0;sketch=0;" vertex="1" parent="1">
                    <mxGeometry x="120" y="2810" width="40" height="80" as="geometry"/>
                </mxCell>
                <mxCell id="163" value="" style="edgeStyle=none;rounded=1;orthogonalLoop=1;jettySize=auto;html=1;endArrow=none;startSize=14;endSize=14;sourcePerimeterSpacing=8;targetPerimeterSpacing=8;endFill=0;" edge="1" parent="1" source="167" target="170">
                    <mxGeometry relative="1" as="geometry"/>
                </mxCell>
                <mxCell id="164" value="3: Overlay the &lt;u&gt;Size &amp;amp; Difficulty&lt;/u&gt;&amp;nbsp;screen" style="edgeLabel;html=1;align=center;verticalAlign=middle;resizable=0;points=[];" vertex="1" connectable="0" parent="163">
                    <mxGeometry x="-0.1966" y="1" relative="1" as="geometry">
                        <mxPoint x="-111" as="offset"/>
                    </mxGeometry>
                </mxCell>
                <mxCell id="165" style="edgeStyle=none;rounded=1;orthogonalLoop=1;jettySize=auto;html=1;endArrow=none;endFill=0;startSize=14;endSize=6;sourcePerimeterSpacing=8;targetPerimeterSpacing=8;" edge="1" parent="1">
                    <mxGeometry relative="1" as="geometry">
                        <mxPoint x="550" y="2770" as="targetPoint"/>
                        <mxPoint x="550" y="2940" as="sourcePoint"/>
                        <Array as="points">
                            <mxPoint x="600" y="2940"/>
                            <mxPoint x="600" y="2770"/>
                        </Array>
                    </mxGeometry>
                </mxCell>
                <mxCell id="166" value="7: Destroy Instance" style="edgeLabel;html=1;align=center;verticalAlign=middle;resizable=0;points=[];" vertex="1" connectable="0" parent="165">
                    <mxGeometry x="-0.1122" y="-1" relative="1" as="geometry">
                        <mxPoint x="69" y="-20" as="offset"/>
                    </mxGeometry>
                </mxCell>
                <mxCell id="167" value=":Level Editor" style="shape=umlBoundary;whiteSpace=wrap;html=1;shadow=0;sketch=0;" vertex="1" parent="1">
                    <mxGeometry x="440" y="2930" width="100" height="80" as="geometry"/>
                </mxCell>
                <mxCell id="168" style="edgeStyle=none;rounded=1;orthogonalLoop=1;jettySize=auto;html=1;endArrow=none;endFill=0;startSize=14;endSize=6;sourcePerimeterSpacing=8;targetPerimeterSpacing=8;" edge="1" parent="1">
                    <mxGeometry relative="1" as="geometry">
                        <mxPoint x="550" y="2990" as="targetPoint"/>
                        <mxPoint x="550" y="3170" as="sourcePoint"/>
                        <Array as="points">
                            <mxPoint x="600" y="3170"/>
                            <mxPoint x="600" y="2990"/>
                        </Array>
                    </mxGeometry>
                </mxCell>
                <mxCell id="169" value="5: Send (Size, Difficulty)" style="edgeLabel;html=1;align=center;verticalAlign=middle;resizable=0;points=[];" vertex="1" connectable="0" parent="168">
                    <mxGeometry x="-0.044" y="1" relative="1" as="geometry">
                        <mxPoint x="91" y="-10" as="offset"/>
                    </mxGeometry>
                </mxCell>
                <mxCell id="170" value=":Size &amp;amp; Difficulty Screen" style="shape=umlBoundary;whiteSpace=wrap;html=1;shadow=0;sketch=0;" vertex="1" parent="1">
                    <mxGeometry x="440" y="3130" width="100" height="80" as="geometry"/>
                </mxCell>
                <mxCell id="174" value="" style="html=1;verticalAlign=bottom;endArrow=block;rounded=1;startSize=14;endSize=6;sourcePerimeterSpacing=16;targetPerimeterSpacing=8;endFill=1;" edge="1" parent="1">
                    <mxGeometry width="80" relative="1" as="geometry">
                        <mxPoint x="160" y="3160" as="sourcePoint"/>
                        <mxPoint x="420" y="3160" as="targetPoint"/>
                    </mxGeometry>
                </mxCell>
                <mxCell id="175" value="" style="html=1;verticalAlign=bottom;endArrow=block;rounded=1;startSize=14;endSize=6;sourcePerimeterSpacing=16;targetPerimeterSpacing=8;" edge="1" parent="1">
                    <mxGeometry width="80" relative="1" as="geometry">
                        <mxPoint x="480" y="3040" as="sourcePoint"/>
                        <mxPoint x="480" y="3100" as="targetPoint"/>
                    </mxGeometry>
                </mxCell>
                <mxCell id="176" value="" style="html=1;verticalAlign=bottom;endArrow=block;rounded=1;startSize=14;endSize=6;sourcePerimeterSpacing=16;targetPerimeterSpacing=8;" edge="1" parent="1">
                    <mxGeometry width="80" relative="1" as="geometry">
                        <mxPoint x="480" y="2840" as="sourcePoint"/>
                        <mxPoint x="480" y="2900" as="targetPoint"/>
                    </mxGeometry>
                </mxCell>
                <mxCell id="177" value="" style="html=1;verticalAlign=bottom;endArrow=block;rounded=1;startSize=14;endSize=6;sourcePerimeterSpacing=16;targetPerimeterSpacing=8;" edge="1" parent="1">
                    <mxGeometry width="80" relative="1" as="geometry">
                        <mxPoint x="190" y="2760" as="sourcePoint"/>
                        <mxPoint x="390" y="2760" as="targetPoint"/>
                    </mxGeometry>
                </mxCell>
                <mxCell id="178" value="" style="html=1;verticalAlign=bottom;endArrow=block;rounded=1;startSize=14;endSize=6;sourcePerimeterSpacing=16;targetPerimeterSpacing=8;" edge="1" parent="1">
                    <mxGeometry width="80" relative="1" as="geometry">
                        <mxPoint x="610" y="3147.9999999999995" as="sourcePoint"/>
                        <mxPoint x="610" y="3007.9999999999995" as="targetPoint"/>
                    </mxGeometry>
                </mxCell>
                <mxCell id="179" value="" style="html=1;verticalAlign=bottom;endArrow=block;rounded=1;startSize=14;endSize=6;sourcePerimeterSpacing=16;targetPerimeterSpacing=8;" edge="1" parent="1">
                    <mxGeometry width="80" relative="1" as="geometry">
                        <mxPoint x="190" y="2960" as="sourcePoint"/>
                        <mxPoint x="390" y="2960" as="targetPoint"/>
                    </mxGeometry>
                </mxCell>
                <mxCell id="180" value="" style="html=1;verticalAlign=bottom;endArrow=block;rounded=1;startSize=14;endSize=6;sourcePerimeterSpacing=16;targetPerimeterSpacing=8;" edge="1" parent="1">
                    <mxGeometry width="80" relative="1" as="geometry">
                        <mxPoint x="610" y="2920" as="sourcePoint"/>
                        <mxPoint x="610" y="2780" as="targetPoint"/>
                    </mxGeometry>
                </mxCell>
            </root>
        </mxGraphModel>
    </diagram>
</mxfile>